PathFileType	4	(X/Y/Z)	s01c0202.trc
DataRate	CameraRate	NumFrames	NumMarkers	Units	OrigDataRate	OrigDataStartFrame	OrigNumFrames
200	200	7	48	mm	200	0	2000
Frame#	Time	racr			lacr			c7			jug			rlel			rdr			llel			ldr			s2			lic			ric			lasi			rasi			rpsi			lpsi			rgt			lgt			rth1			rth2			rth3			rth4			rlfc			rsh1			rsh2			rsh3			rsh4			rlmal			rmmal			rcal			rtoe			rmt5			lth1			lth2			lth4			lth3			llfc			lsh1			lsh2			lsh3			lsh4			llmal			lmmal			lcal			ltoe			lmt5			SBIKE			LBIKE			RBIKE			
		X1	Y1	Z1	X2	Y2	Z2	X3	Y3	Z3	X4	Y4	Z4	X5	Y5	Z5	X6	Y6	Z6	X7	Y7	Z7	X8	Y8	Z8	X9	Y9	Z9	X10	Y10	Z10	X11	Y11	Z11	X12	Y12	Z12	X13	Y13	Z13	X14	Y14	Z14	X15	Y15	Z15	X16	Y16	Z16	X17	Y17	Z17	X18	Y18	Z18	X19	Y19	Z19	X20	Y20	Z20	X21	Y21	Z21	X22	Y22	Z22	X23	Y23	Z23	X24	Y24	Z24	X25	Y25	Z25	X26	Y26	Z26	X27	Y27	Z27	X28	Y28	Z28	X29	Y29	Z29	X30	Y30	Z30	X31	Y31	Z31	X32	Y32	Z32	X33	Y33	Z33	X34	Y34	Z34	X35	Y35	Z35	X36	Y36	Z36	X37	Y37	Z37	X38	Y38	Z38	X39	Y39	Z39	X40	Y40	Z40	X41	Y41	Z41	X42	Y42	Z42	X43	Y43	Z43	X44	Y44	Z44	X45	Y45	Z45	X46	Y46	Z46	X47	Y47	Z47	X48	Y48	Z48	
0	0.0000	454.476471	1355.197266	-113.344200	459.474792	1357.882690	-418.027191	408.137421	1412.350464	-257.990753	433.468109	1255.344360	-264.545441	550.158386	1104.358643	-15.418335	712.238647	895.823914	-33.033512	560.430054	1102.810425	-483.357269	705.531006	896.492859	-450.801666	-89.641403	1147.139282	-245.758545	102.611717	1157.470093	-431.140259	77.688606	1139.572632	-95.070549	80.405327	1104.124146	-396.796661	100.150742	1088.618896	-121.715530	-60.114216	1182.462524	-191.907806	-64.956375	1187.525269	-299.856049	12.540109	1019.999207	-67.014809	20.410398	1048.758789	-459.250305	83.211861	896.988281	-52.499241	130.000931	829.757446	-64.571739	175.503250	753.596252	-82.537224	175.746948	859.958435	-77.245461	208.009109	652.511169	-108.500244	147.942871	550.198303	-74.430336	127.588631	467.833405	-74.406464	97.634018	383.859192	-84.577835	175.522614	453.596527	-108.495544	53.678753	262.384766	-103.279945	0.000000	0.000000	-0.000000	11.907158	233.627029	-160.539169	276.587860	181.621338	-132.372620	165.878571	163.791092	-69.302383	122.716202	982.044128	-463.296753	211.400116	981.097290	-471.473785	214.011520	1035.107544	-461.513519	296.720367	971.822571	-462.738342	405.689728	913.370728	-444.371216	321.110382	838.049011	-461.635468	278.012451	764.013306	-449.212555	234.331497	692.599426	-429.206879	328.804382	740.054016	-422.312469	174.070084	581.621277	-404.045715	203.154373	591.067261	-322.101227	119.942757	545.798889	-361.022675	395.334045	517.959961	-371.946442	289.458984	500.142090	-436.756348	-224.896545	892.850037	-252.320724	-12.521115	84.784767	-456.033905	-21.689054	81.034920	-55.793629	
1	0.0050	454.916534	1355.387451	-113.004990	459.495453	1357.905273	-418.054321	408.173370	1412.406128	-257.988495	433.509644	1255.248535	-264.479095	550.179626	1104.355713	-15.421546	712.239014	895.847168	-33.035114	560.429443	1102.853271	-483.372711	705.532104	896.501160	-450.778229	-89.631073	1147.154419	-245.762329	102.634109	1157.546265	-431.203369	77.727943	1139.546509	-95.079498	80.428185	1104.098877	-396.787354	100.181221	1088.591309	-121.663620	-60.076344	1182.457397	-191.911469	-64.917915	1187.530762	-299.862396	12.567853	1020.004211	-67.027390	20.435434	1048.764893	-459.253784	83.239044	896.966553	-52.507122	130.021835	829.750000	-64.589310	175.535080	753.585144	-82.557571	175.769073	859.949280	-77.275299	208.022324	652.518005	-108.494476	147.955322	550.225403	-74.445518	127.599892	467.824158	-74.416344	97.635048	383.859070	-84.579025	175.538788	453.603546	-108.494934	53.689350	262.387482	-103.288078	0.000000	0.000000	-0.000000	11.930307	233.636856	-160.548630	276.593750	181.622269	-132.357361	165.869995	163.814484	-69.303917	122.752693	982.033569	-463.313568	211.410233	981.124084	-471.509369	214.055817	1035.319336	-461.904266	296.728394	971.819641	-462.761108	405.700836	913.373779	-444.382965	321.113678	838.057556	-461.651489	278.011658	764.013184	-449.217712	234.334106	692.601501	-429.218231	328.809967	740.056641	-422.298737	174.066620	581.614563	-404.050781	202.690186	591.137207	-321.644318	119.946518	545.794983	-361.027069	395.331238	517.979431	-371.951019	289.463257	500.159821	-436.750732	-224.887894	892.852173	-252.321396	-12.514124	84.763962	-456.037842	-21.694965	81.031708	-55.801300	
2	0.0100	454.578491	1355.206299	-113.387886	459.536835	1357.929321	-418.077362	408.190277	1412.443115	-258.028351	433.578339	1255.215210	-264.472534	550.194336	1104.374023	-15.409563	712.231140	895.841187	-33.039364	560.466858	1102.873535	-483.374054	705.527100	896.506958	-450.782257	-89.630066	1147.167236	-245.732498	102.647179	1157.512817	-431.242584	77.756371	1139.509155	-95.076775	80.454941	1104.065796	-396.782684	100.211975	1088.535645	-121.665192	-60.053982	1182.455566	-191.899643	-64.915245	1187.526855	-299.840973	12.587101	1019.984985	-67.024628	20.442343	1048.771118	-459.235962	83.256203	896.964844	-52.508793	130.032104	829.747192	-64.583984	175.547928	753.583130	-82.571793	175.789200	859.945679	-77.268974	208.047180	652.514282	-108.504791	147.981186	550.221802	-74.444672	127.617584	467.837189	-74.411163	97.659622	383.859039	-84.588196	175.557098	453.597961	-108.500854	53.680630	262.399261	-103.279449	0.000000	0.000000	-0.000000	11.930915	233.655563	-160.556946	276.604889	181.617935	-132.371780	165.872192	163.803528	-69.319633	122.785393	982.023987	-463.331238	211.411667	981.113037	-471.510864	214.067978	1035.321167	-461.914307	296.755707	971.814697	-462.775696	405.696716	913.378967	-444.397491	321.112701	838.046753	-461.672333	278.010315	764.014893	-449.228455	234.339691	692.597595	-429.226410	328.817444	740.055298	-422.313904	173.951355	581.682861	-404.309845	203.156128	591.044739	-322.112122	119.648544	545.727112	-361.549835	395.329559	517.973083	-371.936829	289.472321	500.162659	-436.739746	-224.890610	892.844788	-252.322754	-12.521595	84.789078	-456.023651	-21.690855	81.036926	-55.802586	
3	0.0150	454.627197	1355.248169	-113.373489	458.641663	1356.990479	-417.917450	408.254272	1411.286621	-258.425903	433.639557	1255.252319	-264.485443	550.226868	1104.384766	-15.407000	713.068359	896.043945	-33.135223	560.478333	1102.870972	-483.378082	708.884827	900.395874	-448.027679	-89.508499	1147.290649	-246.164062	102.671196	1157.520386	-431.309631	77.866920	1139.662964	-94.941910	80.461678	1104.041870	-396.797607	100.581978	1088.618164	-121.631737	-60.073669	1182.420898	-191.896912	-64.585785	1187.298340	-300.100677	12.692256	1019.845581	-66.920761	20.576187	1048.703247	-459.252747	83.386902	897.072021	-52.209934	130.051117	829.743591	-64.597008	175.663467	753.676758	-82.564178	175.802292	859.889526	-77.263351	208.071594	652.507263	-108.511833	148.078629	550.219360	-74.449173	127.639259	467.828339	-74.438454	97.665947	383.859375	-84.583672	175.572510	453.596191	-108.514175	53.563412	262.494904	-103.252991	0.000000	0.000000	-0.000000	11.941762	233.657364	-160.560135	276.592865	181.619492	-132.364044	165.880844	163.811554	-69.309067	122.815819	982.015808	-463.348694	211.418304	981.112976	-471.517975	222.591476	1034.619385	-454.270782	296.740997	971.807922	-462.779236	405.821136	913.481201	-444.252686	321.117188	838.032410	-461.674164	278.708466	762.791687	-451.603912	234.513702	692.643677	-429.227753	329.324249	739.429443	-423.283325	173.844147	581.756775	-404.505127	200.284592	590.779968	-319.517273	119.481789	545.717346	-361.815369	395.332214	517.958557	-371.932892	289.463928	500.165588	-436.748505	-225.074951	892.936584	-252.721222	-12.526803	84.780685	-456.026001	-21.701038	81.047112	-55.804489	
4	0.0200	454.746277	1355.260376	-113.381630	458.726929	1356.848022	-417.959564	408.302826	1411.373657	-258.407349	433.681824	1255.182251	-264.564301	550.248108	1104.379517	-15.403168	712.641479	895.914246	-33.073868	560.596741	1102.809326	-483.353516	705.645996	897.499512	-450.398285	-89.342972	1147.207031	-246.340652	102.781700	1156.351562	-431.638397	77.886459	1139.653809	-94.919792	80.085899	1103.702026	-396.139099	100.588333	1088.518433	-121.575470	-60.306618	1182.490601	-191.890091	-65.354874	1187.533936	-299.671509	12.654067	1019.734741	-66.829254	20.736294	1048.777954	-459.447693	83.397743	897.038269	-52.282326	129.983292	829.683044	-64.674309	175.653015	753.702393	-82.610611	175.795212	859.918579	-77.212082	208.058258	652.526245	-108.591011	148.032684	550.223938	-74.561272	127.634979	467.846893	-74.403755	97.671913	383.890625	-84.601295	175.592453	453.581573	-108.553017	53.546234	262.352844	-103.458755	0.000000	0.000000	-0.000000	11.916814	233.562332	-160.621216	276.614777	181.641129	-132.384705	165.835327	163.825226	-69.339882	122.842339	982.009460	-463.366028	211.427795	980.956482	-471.560394	222.367096	1035.190430	-453.647064	296.792938	971.714172	-462.921570	405.848236	913.434570	-444.375580	321.585419	838.007996	-461.974335	278.082825	763.877747	-449.193481	234.610901	692.596558	-429.362030	328.032135	739.494080	-423.283234	173.736816	581.833679	-404.704407	200.298645	590.554016	-319.695679	119.312157	545.707520	-362.078278	395.179138	517.764954	-371.926147	289.380951	499.993652	-436.705902	-225.040115	892.739868	-252.466904	-12.289475	84.627808	-456.405579	-21.746450	80.927498	-55.759895	
5	0.0250	454.813873	1355.234985	-113.442177	458.358246	1357.395630	-417.970825	408.259521	1411.448486	-258.358582	433.719513	1255.226440	-264.555176	550.250549	1104.419556	-15.397708	712.726135	896.005188	-33.016193	560.355103	1102.707520	-483.352570	703.875610	898.028076	-450.271698	-89.573715	1147.367065	-245.960281	102.808983	1156.343018	-431.715851	77.887512	1139.637817	-94.894478	80.493767	1103.677124	-396.491058	100.642387	1088.498901	-121.560722	-59.874420	1182.354370	-191.926682	-65.974594	1187.729614	-299.320953	12.733915	1019.916016	-66.972191	20.077261	1049.094604	-459.196716	83.412048	897.047974	-52.273281	130.080673	829.799255	-64.577591	175.673325	753.691345	-82.617371	175.848053	859.916321	-77.238754	208.116608	652.517273	-108.457344	148.090607	550.236267	-74.415405	127.662888	467.848114	-74.413734	97.716576	383.878784	-84.613632	175.622421	453.602264	-108.536873	53.579659	262.402008	-103.443138	0.000000	0.000000	-0.000000	11.944781	233.609528	-160.594986	276.615234	181.626633	-132.366058	165.892715	163.849731	-69.285080	122.864311	982.005859	-463.382629	211.436020	981.017578	-471.567169	221.368286	1035.512817	-454.186951	296.890289	971.779907	-462.958038	405.418304	913.668335	-444.458740	323.915741	838.431213	-462.301941	278.609863	763.110352	-450.882294	234.628113	692.639832	-429.310852	328.032532	739.492737	-423.283356	173.628418	581.907959	-404.900909	203.238144	591.071777	-321.980865	119.139343	545.695129	-362.342102	395.267761	517.862915	-371.893799	289.428680	500.052460	-436.749847	-224.955521	892.741943	-252.539291	-13.038961	84.943527	-456.116669	-21.625925	80.836006	-55.970375	
6	0.0300	454.856140	1355.289307	-113.450172	458.445679	1357.396973	-418.000824	408.169708	1411.509644	-258.301910	433.793915	1255.247803	-264.567017	550.276611	1104.431274	-15.397176	712.718628	896.004761	-33.002335	560.298157	1102.677490	-483.393311	703.873230	898.086792	-450.274994	-89.601479	1147.413574	-245.866745	102.819817	1156.333130	-431.815369	77.897446	1139.637817	-94.879021	80.520348	1103.586060	-396.445465	100.679543	1088.450439	-121.525955	-59.794460	1182.323975	-191.960419	-66.456169	1187.888306	-299.043091	12.758655	1019.908081	-66.986847	20.138903	1049.072266	-459.203064	83.439537	897.047729	-52.278938	130.110580	829.782227	-64.573563	175.694550	753.705994	-82.616158	175.841919	859.914551	-77.231659	208.121887	652.536560	-108.453682	148.122849	550.237305	-74.414238	127.671761	467.882324	-74.412865	97.718102	383.910889	-84.612221	175.656662	453.618835	-108.549522	53.561413	262.412659	-103.418976	0.000000	0.000000	-0.000000	11.966839	233.602844	-160.615158	276.633453	181.629456	-132.385590	165.903137	163.854156	-69.269875	122.881790	982.005005	-463.398407	211.446381	981.005981	-471.583649	219.864319	1035.642822	-455.534637	296.953552	971.789307	-463.031525	405.554901	913.662415	-444.401428	323.967346	838.432190	-462.317749	278.632019	763.117981	-450.740112	234.630280	692.639709	-429.304108	328.077759	739.512451	-423.299347	173.541489	581.969604	-405.049988	200.318344	590.481323	-319.733826	119.091164	545.732300	-362.346741	395.244354	517.853088	-371.889954	289.426819	500.031281	-436.731689	-224.942123	892.738220	-252.534958	-13.071609	84.846153	-456.139771	-21.583075	80.765121	-55.994003	
